<?xml version="1.0" encoding="UTF-8"?>
<svg id="Capa_1" data-name="Capa 1" xmlns="http://www.w3.org/2000/svg" viewBox="0 0 512 202">
  <defs>
    <style>
      .cls-1 {
        fill: #c74f12;
      }

      .cls-2 {
        fill: #ffffff;
      }
    </style>
  </defs>
  <g>
    <path class="cls-2" d="M96.83,104.37H20.54c-8.44,0-15.29-6.84-15.29-15.29s6.84-15.29,15.29-15.29h124.6v-33.17H49.46C22.67,40.63.96,62.37,1,89.16h0c.04,26.73,21.72,48.38,48.46,48.38h76.29c8.44,0,15.29,6.84,15.29,15.29h0c0,8.44-6.84,15.29-15.29,15.29H1.14v33.17h95.69c26.79,0,48.5-21.74,48.46-48.53h0c-.04-26.73-21.72-48.38-48.46-48.38Z"/>
    <path class="cls-2" d="M252.58,104.37h-76.29c-8.44,0-15.29-6.84-15.29-15.29s6.84-15.29,15.29-15.29h124.6v-33.17h-95.69c-26.79,0-48.5,21.74-48.46,48.53h0c.04,26.73,21.72,48.38,48.46,48.38h76.29c8.44,0,15.29,6.84,15.29,15.29h0c0,8.44-6.84,15.29-15.29,15.29h-124.6v33.17h95.69c26.79,0,48.5-21.74,48.46-48.53h0c-.04-26.73-21.72-48.38-48.46-48.38Z"/>
    <path class="cls-2" d="M462.56,89.01c-.04-26.73-21.72-48.38-48.46-48.38h-95.83v33.17h124.75c8.44,0,15.29,6.84,15.29,15.29s-6.84,15.29-15.29,15.29h-124.75v33.17h124.75c8.44,0,15.29,6.84,15.29,15.29h0c0,8.44-6.84,15.29-15.29,15.29h-124.6v33.17h95.69c26.79,0,48.5-21.74,48.46-48.53h0c-.02-12.18-4.54-23.3-11.97-31.8,7.46-8.54,11.99-19.71,11.97-31.94h0Z"/>
  </g>
  <g>
    <rect class="cls-1" x="461.84" y="17.1" width="32.78" height="32.78"/>
    <rect class="cls-1" x="494.61" y=".72" width="16.39" height="16.39"/>
  </g>
</svg>
